<svg xmlns="http://www.w3.org/2000/svg" id="money-bag" viewBox="0 0 1000 1000">
  <path d="M158.17,643.37v76.11c0,78.74,46.79,149.66,119.16,180.65l1.31.56c6.28,2.66,12.88,5.31,19.8,7.93,64.92,24.63,133.17,36.95,201.46,36.95s136.25-12.25,201.14-36.76c7.12-2.69,13.88-5.4,20.31-8.13.01,0,1.27-.54,1.27-.54,72.42-31.02,119.2-101.94,119.2-180.69v-76.09c0-19.06-2.71-37.98-8.07-56.25-12.38-42.23-31.02-80.03-55.4-112.36-29.95-39.7-55.59-62.64-78.23-82.88-25.69-22.97-47.89-42.82-72.53-83.12-7.8-12.75-14.69-26.12-20.89-39.71l50.72-149.18s.01-.07.02-.1c.42-1.25.71-2.55.9-3.87.01-.07.04-.15.05-.22.07-.57.03-1.17.05-1.75.04-.81.12-1.63.06-2.43,0-.02,0-.03,0-.05-.11-1.39-.36-2.76-.73-4.09-.01-.03-.01-.06-.02-.09-.11-.39-.31-.74-.44-1.12-.31-.91-.62-1.81-1.05-2.66-.3-.6-.69-1.13-1.04-1.69-.38-.6-.73-1.22-1.16-1.78-.42-.54-.92-1.01-1.39-1.51-.48-.5-.92-1.03-1.44-1.48-.53-.46-1.13-.83-1.7-1.24-.55-.39-1.06-.81-1.66-1.14-.81-.47-1.69-.81-2.56-1.17-.38-.16-.73-.38-1.13-.52-.03-.01-.06-.01-.09-.02-1.26-.42-2.57-.72-3.91-.9-.07-.01-.13-.04-.19-.04-.57-.07-1.17-.03-1.75-.05-.81-.04-1.63-.12-2.43-.06-.03,0-.06.02-.09.02-1.38.11-2.73.35-4.04.71-.03.01-.07.01-.1.02-21.63,6.11-41.73,7.6-61.47,4.55-21.09-3.25-37.83-11.18-55.56-19.56-25.57-12.1-52.06-24.6-90.68-23.09-26.2,1.11-52.2,8.6-77.26,22.28-.09.05-.17.12-.26.18-.71.39-1.33.88-1.98,1.35-.5.36-1.04.69-1.5,1.09-.54.47-.99,1.01-1.48,1.52-.47.5-.96.96-1.38,1.5-.39.5-.69,1.07-1.04,1.61-.39.61-.81,1.2-1.13,1.84-.3.59-.49,1.21-.74,1.82-.25.65-.54,1.27-.74,1.94-.19.66-.26,1.35-.39,2.03-.12.66-.28,1.31-.34,1.98-.05.64,0,1.29,0,1.94,0,.74-.03,1.47.06,2.21.07.58.23,1.15.35,1.74.16.81.3,1.62.55,2.41.03.1.04.2.07.3l56.64,166.7c-6.27,13.62-13.19,27.05-20.97,39.88-28.13,46.48-57.58,73.04-86.05,98.72-21.5,19.4-43.73,39.45-64.66,67.19-24.38,32.32-43.02,70.13-55.4,112.36-5.36,18.26-8.07,37.19-8.07,56.25ZM425.59,96.93c28.16-1.13,47.94,8.24,70.81,19.05,18.77,8.88,40.05,18.95,67.22,23.14,8.63,1.34,17.4,2,26.29,2,5.21,0,10.47-.31,15.74-.76l-36.98,108.77h-137.27l-48.46-142.59c14.15-5.73,28.45-9.01,42.66-9.61ZM200.6,643.37c0-15.02,2.14-29.93,6.35-44.31,10.93-37.3,27.27-70.52,48.56-98.74,18.48-24.51,38.26-42.35,59.2-61.24,30.75-27.74,62.55-56.43,93.92-108.26,7.69-12.69,14.77-25.85,21.14-39.26h140.38c6.36,13.47,13.48,26.66,21.24,39.35,27.91,45.62,53.42,68.45,80.44,92.6,22.22,19.87,45.19,40.42,72.64,76.81,21.29,28.22,37.63,61.44,48.56,98.74,4.22,14.38,6.35,29.29,6.35,44.31v76.09c0,61.75-36.69,117.36-93.48,141.69l8.36,19.5-9.47-19.03c-5.95,2.52-12.19,5.02-18.76,7.51-120.27,45.42-252.57,45.36-372.57-.18-6.39-2.42-12.48-4.87-18.28-7.32l-1.13-.49c-56.78-24.31-93.47-79.91-93.47-141.66v-76.11Z"></path>
  <path d="M543.05,728.59h-86.1c-12.32,0-22.35-10.03-22.35-22.35s-9.5-21.21-21.21-21.21-21.21,9.5-21.21,21.21c0,35.72,29.06,64.78,64.78,64.78h21.84v28.61c0,11.72,9.5,21.21,21.21,21.21s21.21-9.5,21.21-21.21v-28.61h21.84c35.72,0,64.78-29.06,64.78-64.78v-19.3c0-26.52-15.89-50.09-40.48-60.05l-59.39-24.03-59.39-24.04c-8.48-3.43-13.96-11.57-13.96-20.71v-19.31c0-12.32,10.03-22.34,22.35-22.34h86.1c12.32,0,22.35,10.03,22.35,22.34s9.5,21.21,21.21,21.21,21.21-9.5,21.21-21.21c0-35.72-29.06-64.77-64.78-64.77h-21.84v-28.61c0-11.72-9.5-21.21-21.21-21.21s-21.21,9.5-21.21,21.21v28.61h-21.84c-35.72,0-64.78,29.06-64.78,64.77v19.31c0,26.52,15.89,50.09,40.48,60.04l59.39,24.04,59.39,24.03c8.48,3.44,13.97,11.57,13.97,20.72v19.3c0,12.32-10.03,22.35-22.35,22.35Z"></path>
</svg>
